# xmcd CD database file
#
# Track frame offsets:
#	150
#	30347
#	56941
#	86675
#	104412
#	126299
#	169942
#	198301
#	222340
#
# Disc length: 3274 seconds
#
# Revision: 1
# Processed by: cddbd v1.5.2PL0 Copyright (c) Steve Scherf et al.
# Submitted via: CDex 1.51
#
DISCID=800cc809
DTITLE=Herbie Hancock - The Best of Herbie Hancock
DYEAR=2001
DGENRE=Jazz
TTITLE0=Jammin' With Herbie
TTITLE1=Herbie's Blues
TTITLE2=Rock Your Soul
TTITLE3=T.C.B. with Herbie
TTITLE4=Soul Power
TTITLE5=Cat Call
TTITLE6=Curro's
TTITLE7=It's A Beautiful Evening
TTITLE8=Day Dreams
EXTD=YEAR: 2001
EXTT0=
EXTT1=
EXTT2=
EXTT3=
EXTT4=
EXTT5=
EXTT6=
EXTT7=
EXTT8=
PLAYORDER=
